<mxfile host="Electron" agent="Mozilla/5.0 (Windows NT 10.0; Win64; x64) AppleWebKit/537.36 (KHTML, like Gecko) draw.io/26.2.15 Chrome/134.0.6998.205 Electron/35.2.1 Safari/537.36" version="26.2.15">
  <diagram name="Page-1" id="xyN93A8ILymqGsIet8Lh">
    <mxGraphModel dx="1042" dy="696" grid="1" gridSize="10" guides="1" tooltips="1" connect="1" arrows="1" fold="1" page="1" pageScale="1" pageWidth="850" pageHeight="1100" math="0" shadow="0">
      <root>
        <mxCell id="0" />
        <mxCell id="1" parent="0" />
        <mxCell id="-dmVkXoT4dWfHnR47MHz-1" value="&lt;b&gt;&lt;font style=&quot;font-size: 15px;&quot;&gt;crm_cust _info&lt;/font&gt;&lt;/b&gt;" style="swimlane;fontStyle=0;childLayout=stackLayout;horizontal=1;startSize=30;horizontalStack=0;resizeParent=1;resizeParentMax=0;resizeLast=0;collapsible=1;marginBottom=0;whiteSpace=wrap;html=1;rounded=1;fillColor=#e1d5e7;strokeColor=#9673a6;" parent="1" vertex="1">
          <mxGeometry x="330" y="320" width="190" height="90" as="geometry" />
        </mxCell>
        <mxCell id="-dmVkXoT4dWfHnR47MHz-2" value="&lt;b&gt;&lt;font style=&quot;font-size: 15px;&quot;&gt;cst_id&lt;/font&gt;&lt;/b&gt;" style="text;strokeColor=none;fillColor=none;align=left;verticalAlign=middle;spacingLeft=4;spacingRight=4;overflow=hidden;points=[[0,0.5],[1,0.5]];portConstraint=eastwest;rotatable=0;whiteSpace=wrap;html=1;" parent="-dmVkXoT4dWfHnR47MHz-1" vertex="1">
          <mxGeometry y="30" width="190" height="30" as="geometry" />
        </mxCell>
        <mxCell id="-dmVkXoT4dWfHnR47MHz-19" value="&lt;b&gt;&lt;font style=&quot;font-size: 15px;&quot;&gt;cst_key&lt;/font&gt;&lt;/b&gt;" style="text;strokeColor=none;fillColor=none;align=left;verticalAlign=middle;spacingLeft=4;spacingRight=4;overflow=hidden;points=[[0,0.5],[1,0.5]];portConstraint=eastwest;rotatable=0;whiteSpace=wrap;html=1;" parent="-dmVkXoT4dWfHnR47MHz-1" vertex="1">
          <mxGeometry y="60" width="190" height="30" as="geometry" />
        </mxCell>
        <mxCell id="-dmVkXoT4dWfHnR47MHz-5" value="&lt;b&gt;&lt;font&gt;Customer Information&lt;/font&gt;&lt;/b&gt;" style="text;html=1;align=center;verticalAlign=middle;whiteSpace=wrap;rounded=0;" parent="1" vertex="1">
          <mxGeometry x="335" y="280" width="130" height="30" as="geometry" />
        </mxCell>
        <mxCell id="-dmVkXoT4dWfHnR47MHz-6" value="&lt;b&gt;&lt;font style=&quot;font-size: 17px;&quot;&gt;Integration Model&lt;/font&gt;&lt;/b&gt;" style="text;html=1;align=center;verticalAlign=middle;whiteSpace=wrap;rounded=0;" parent="1" vertex="1">
          <mxGeometry x="10" y="20" width="200" height="40" as="geometry" />
        </mxCell>
        <mxCell id="-dmVkXoT4dWfHnR47MHz-7" value="&lt;b&gt;&lt;font&gt;Current &amp;amp; History Product Information&lt;/font&gt;&lt;/b&gt;" style="text;html=1;align=center;verticalAlign=middle;whiteSpace=wrap;rounded=0;" parent="1" vertex="1">
          <mxGeometry x="320" y="130" width="180" height="20" as="geometry" />
        </mxCell>
        <mxCell id="-dmVkXoT4dWfHnR47MHz-8" value="&lt;b&gt;&lt;font style=&quot;font-size: 15px;&quot;&gt;crm_prd _info&lt;/font&gt;&lt;/b&gt;" style="swimlane;fontStyle=0;childLayout=stackLayout;horizontal=1;startSize=30;horizontalStack=0;resizeParent=1;resizeParentMax=0;resizeLast=0;collapsible=1;marginBottom=0;whiteSpace=wrap;html=1;rounded=1;fillColor=#e1d5e7;strokeColor=#9673a6;" parent="1" vertex="1">
          <mxGeometry x="330" y="160" width="190" height="60" as="geometry" />
        </mxCell>
        <mxCell id="-dmVkXoT4dWfHnR47MHz-9" value="&lt;b&gt;&lt;font style=&quot;font-size: 15px;&quot;&gt;prd_key&lt;/font&gt;&lt;/b&gt;" style="text;strokeColor=none;fillColor=none;align=left;verticalAlign=middle;spacingLeft=4;spacingRight=4;overflow=hidden;points=[[0,0.5],[1,0.5]];portConstraint=eastwest;rotatable=0;whiteSpace=wrap;html=1;" parent="-dmVkXoT4dWfHnR47MHz-8" vertex="1">
          <mxGeometry y="30" width="190" height="30" as="geometry" />
        </mxCell>
        <mxCell id="-dmVkXoT4dWfHnR47MHz-12" value="&lt;b&gt;Transactional Records about Sales &amp;amp; Orders&lt;/b&gt;" style="text;html=1;align=center;verticalAlign=middle;whiteSpace=wrap;rounded=0;" parent="1" vertex="1">
          <mxGeometry x="45" y="180" width="130" height="30" as="geometry" />
        </mxCell>
        <mxCell id="-dmVkXoT4dWfHnR47MHz-13" value="&lt;b&gt;&lt;font style=&quot;font-size: 15px;&quot;&gt;crm_sales _details&lt;/font&gt;&lt;/b&gt;" style="swimlane;fontStyle=0;childLayout=stackLayout;horizontal=1;startSize=30;horizontalStack=0;resizeParent=1;resizeParentMax=0;resizeLast=0;collapsible=1;marginBottom=0;whiteSpace=wrap;html=1;rounded=1;fillColor=#e1d5e7;strokeColor=#9673a6;" parent="1" vertex="1">
          <mxGeometry x="40" y="220" width="180" height="90" as="geometry" />
        </mxCell>
        <mxCell id="-dmVkXoT4dWfHnR47MHz-14" value="&lt;span style=&quot;font-size: 15px;&quot;&gt;&lt;b&gt;prd_key&lt;/b&gt;&lt;/span&gt;" style="text;strokeColor=none;fillColor=none;align=left;verticalAlign=middle;spacingLeft=4;spacingRight=4;overflow=hidden;points=[[0,0.5],[1,0.5]];portConstraint=eastwest;rotatable=0;whiteSpace=wrap;html=1;" parent="-dmVkXoT4dWfHnR47MHz-13" vertex="1">
          <mxGeometry y="30" width="180" height="30" as="geometry" />
        </mxCell>
        <mxCell id="-dmVkXoT4dWfHnR47MHz-15" value="&lt;span style=&quot;font-size: 15px;&quot;&gt;&lt;b&gt;cst_id&lt;/b&gt;&lt;/span&gt;" style="text;strokeColor=none;fillColor=none;align=left;verticalAlign=middle;spacingLeft=4;spacingRight=4;overflow=hidden;points=[[0,0.5],[1,0.5]];portConstraint=eastwest;rotatable=0;whiteSpace=wrap;html=1;" parent="-dmVkXoT4dWfHnR47MHz-13" vertex="1">
          <mxGeometry y="60" width="180" height="30" as="geometry" />
        </mxCell>
        <mxCell id="-dmVkXoT4dWfHnR47MHz-16" style="edgeStyle=orthogonalEdgeStyle;rounded=0;orthogonalLoop=1;jettySize=auto;html=1;entryX=0;entryY=0.5;entryDx=0;entryDy=0;" parent="1" source="-dmVkXoT4dWfHnR47MHz-15" target="-dmVkXoT4dWfHnR47MHz-2" edge="1">
          <mxGeometry relative="1" as="geometry" />
        </mxCell>
        <mxCell id="-dmVkXoT4dWfHnR47MHz-17" style="edgeStyle=orthogonalEdgeStyle;rounded=0;orthogonalLoop=1;jettySize=auto;html=1;entryX=0;entryY=0.5;entryDx=0;entryDy=0;" parent="1" source="-dmVkXoT4dWfHnR47MHz-14" target="-dmVkXoT4dWfHnR47MHz-9" edge="1">
          <mxGeometry relative="1" as="geometry" />
        </mxCell>
        <mxCell id="-dmVkXoT4dWfHnR47MHz-22" value="&lt;b&gt;Extra Customer Information (Birthdate)&lt;/b&gt;" style="text;html=1;align=center;verticalAlign=middle;whiteSpace=wrap;rounded=0;" parent="1" vertex="1">
          <mxGeometry x="600" y="300" width="180" height="20" as="geometry" />
        </mxCell>
        <mxCell id="-dmVkXoT4dWfHnR47MHz-23" value="&lt;span style=&quot;font-size: 15px;&quot;&gt;&lt;b&gt;erp_cust_az12&lt;/b&gt;&lt;/span&gt;" style="swimlane;fontStyle=0;childLayout=stackLayout;horizontal=1;startSize=30;horizontalStack=0;resizeParent=1;resizeParentMax=0;resizeLast=0;collapsible=1;marginBottom=0;whiteSpace=wrap;html=1;rounded=1;fillColor=#d5e8d4;strokeColor=#82b366;" parent="1" vertex="1">
          <mxGeometry x="610" y="330" width="190" height="60" as="geometry" />
        </mxCell>
        <mxCell id="-dmVkXoT4dWfHnR47MHz-24" value="&lt;span style=&quot;font-size: 15px;&quot;&gt;&lt;b&gt;cid&lt;/b&gt;&lt;/span&gt;" style="text;strokeColor=none;fillColor=none;align=left;verticalAlign=middle;spacingLeft=4;spacingRight=4;overflow=hidden;points=[[0,0.5],[1,0.5]];portConstraint=eastwest;rotatable=0;whiteSpace=wrap;html=1;" parent="-dmVkXoT4dWfHnR47MHz-23" vertex="1">
          <mxGeometry y="30" width="190" height="30" as="geometry" />
        </mxCell>
        <mxCell id="-dmVkXoT4dWfHnR47MHz-25" value="&lt;b&gt;Location of Customers&lt;/b&gt;" style="text;html=1;align=center;verticalAlign=middle;whiteSpace=wrap;rounded=0;" parent="1" vertex="1">
          <mxGeometry x="605" y="410" width="180" height="20" as="geometry" />
        </mxCell>
        <mxCell id="-dmVkXoT4dWfHnR47MHz-26" value="&lt;span style=&quot;font-size: 15px;&quot;&gt;&lt;b&gt;erp_loc_a101&lt;/b&gt;&lt;/span&gt;" style="swimlane;fontStyle=0;childLayout=stackLayout;horizontal=1;startSize=30;horizontalStack=0;resizeParent=1;resizeParentMax=0;resizeLast=0;collapsible=1;marginBottom=0;whiteSpace=wrap;html=1;rounded=1;fillColor=#d5e8d4;strokeColor=#82b366;" parent="1" vertex="1">
          <mxGeometry x="615" y="440" width="190" height="60" as="geometry" />
        </mxCell>
        <mxCell id="-dmVkXoT4dWfHnR47MHz-27" value="&lt;span style=&quot;font-size: 15px;&quot;&gt;&lt;b&gt;cid&lt;/b&gt;&lt;/span&gt;" style="text;strokeColor=none;fillColor=none;align=left;verticalAlign=middle;spacingLeft=4;spacingRight=4;overflow=hidden;points=[[0,0.5],[1,0.5]];portConstraint=eastwest;rotatable=0;whiteSpace=wrap;html=1;" parent="-dmVkXoT4dWfHnR47MHz-26" vertex="1">
          <mxGeometry y="30" width="190" height="30" as="geometry" />
        </mxCell>
        <mxCell id="-dmVkXoT4dWfHnR47MHz-28" value="&lt;b&gt;Prodcut Categories&lt;/b&gt;" style="text;html=1;align=center;verticalAlign=middle;whiteSpace=wrap;rounded=0;" parent="1" vertex="1">
          <mxGeometry x="595" y="130" width="180" height="20" as="geometry" />
        </mxCell>
        <mxCell id="-dmVkXoT4dWfHnR47MHz-29" value="&lt;span style=&quot;font-size: 15px;&quot;&gt;&lt;b&gt;erp_px_cat_g1v2&lt;/b&gt;&lt;/span&gt;" style="swimlane;fontStyle=0;childLayout=stackLayout;horizontal=1;startSize=30;horizontalStack=0;resizeParent=1;resizeParentMax=0;resizeLast=0;collapsible=1;marginBottom=0;whiteSpace=wrap;html=1;rounded=1;fillColor=#d5e8d4;strokeColor=#82b366;" parent="1" vertex="1">
          <mxGeometry x="605" y="160" width="190" height="60" as="geometry" />
        </mxCell>
        <mxCell id="-dmVkXoT4dWfHnR47MHz-30" value="&lt;span style=&quot;font-size: 15px;&quot;&gt;&lt;b&gt;id&lt;/b&gt;&lt;/span&gt;" style="text;strokeColor=none;fillColor=none;align=left;verticalAlign=middle;spacingLeft=4;spacingRight=4;overflow=hidden;points=[[0,0.5],[1,0.5]];portConstraint=eastwest;rotatable=0;whiteSpace=wrap;html=1;" parent="-dmVkXoT4dWfHnR47MHz-29" vertex="1">
          <mxGeometry y="30" width="190" height="30" as="geometry" />
        </mxCell>
        <mxCell id="-dmVkXoT4dWfHnR47MHz-31" style="edgeStyle=orthogonalEdgeStyle;rounded=0;orthogonalLoop=1;jettySize=auto;html=1;entryX=0.989;entryY=0.827;entryDx=0;entryDy=0;entryPerimeter=0;" parent="1" source="-dmVkXoT4dWfHnR47MHz-24" target="-dmVkXoT4dWfHnR47MHz-2" edge="1">
          <mxGeometry relative="1" as="geometry" />
        </mxCell>
        <mxCell id="-dmVkXoT4dWfHnR47MHz-33" style="edgeStyle=orthogonalEdgeStyle;rounded=0;orthogonalLoop=1;jettySize=auto;html=1;entryX=0.993;entryY=0.833;entryDx=0;entryDy=0;entryPerimeter=0;" parent="1" source="-dmVkXoT4dWfHnR47MHz-27" target="-dmVkXoT4dWfHnR47MHz-2" edge="1">
          <mxGeometry relative="1" as="geometry" />
        </mxCell>
        <mxCell id="-dmVkXoT4dWfHnR47MHz-34" style="edgeStyle=orthogonalEdgeStyle;rounded=0;orthogonalLoop=1;jettySize=auto;html=1;entryX=1;entryY=0.5;entryDx=0;entryDy=0;" parent="1" source="-dmVkXoT4dWfHnR47MHz-30" target="-dmVkXoT4dWfHnR47MHz-9" edge="1">
          <mxGeometry relative="1" as="geometry" />
        </mxCell>
        <mxCell id="-dmVkXoT4dWfHnR47MHz-35" value="" style="rounded=1;whiteSpace=wrap;html=1;fillColor=none;" parent="1" vertex="1">
          <mxGeometry x="20" y="100" width="520" height="450" as="geometry" />
        </mxCell>
        <mxCell id="-dmVkXoT4dWfHnR47MHz-36" value="&lt;font style=&quot;font-size: 15px;&quot;&gt;&lt;b style=&quot;&quot;&gt;CRM&lt;/b&gt;&lt;/font&gt;" style="rounded=1;whiteSpace=wrap;html=1;fillColor=#e1d5e7;strokeColor=#9673a6;" parent="1" vertex="1">
          <mxGeometry x="200" y="80" width="140" height="40" as="geometry" />
        </mxCell>
        <mxCell id="-dmVkXoT4dWfHnR47MHz-38" value="" style="rounded=1;whiteSpace=wrap;html=1;fillColor=none;" parent="1" vertex="1">
          <mxGeometry x="590" y="100" width="240" height="450" as="geometry" />
        </mxCell>
        <mxCell id="-dmVkXoT4dWfHnR47MHz-39" value="&lt;span style=&quot;font-size: 15px;&quot;&gt;&lt;b&gt;ERP&lt;/b&gt;&lt;/span&gt;" style="rounded=1;whiteSpace=wrap;html=1;fillColor=#d5e8d4;strokeColor=#82b366;" parent="1" vertex="1">
          <mxGeometry x="625" y="80" width="140" height="40" as="geometry" />
        </mxCell>
        <mxCell id="HJngVcV8iAFgZDOyvAcd-2" value="&lt;b&gt;&lt;font style=&quot;font-size: 13px;&quot;&gt;Product&lt;/font&gt;&lt;/b&gt;" style="rounded=0;whiteSpace=wrap;html=1;fillColor=#f8cecc;strokeColor=#b85450;" vertex="1" parent="1">
          <mxGeometry x="340" y="220" width="170" height="20" as="geometry" />
        </mxCell>
        <mxCell id="HJngVcV8iAFgZDOyvAcd-3" value="&lt;b&gt;&lt;font style=&quot;font-size: 13px;&quot;&gt;Product&lt;/font&gt;&lt;/b&gt;" style="rounded=0;whiteSpace=wrap;html=1;fillColor=#f8cecc;strokeColor=#b85450;" vertex="1" parent="1">
          <mxGeometry x="615" y="220" width="170" height="20" as="geometry" />
        </mxCell>
        <mxCell id="HJngVcV8iAFgZDOyvAcd-4" value="&lt;span style=&quot;font-size: 13px;&quot;&gt;&lt;b&gt;Customer&lt;/b&gt;&lt;/span&gt;" style="rounded=0;whiteSpace=wrap;html=1;fillColor=#f8cecc;strokeColor=#b85450;" vertex="1" parent="1">
          <mxGeometry x="335" y="410" width="170" height="20" as="geometry" />
        </mxCell>
        <mxCell id="HJngVcV8iAFgZDOyvAcd-5" value="&lt;span style=&quot;font-size: 13px;&quot;&gt;&lt;b&gt;Customer&lt;/b&gt;&lt;/span&gt;" style="rounded=0;whiteSpace=wrap;html=1;fillColor=#f8cecc;strokeColor=#b85450;" vertex="1" parent="1">
          <mxGeometry x="620" y="390" width="170" height="20" as="geometry" />
        </mxCell>
        <mxCell id="HJngVcV8iAFgZDOyvAcd-6" value="&lt;span style=&quot;font-size: 13px;&quot;&gt;&lt;b&gt;Customer&lt;/b&gt;&lt;/span&gt;" style="rounded=0;whiteSpace=wrap;html=1;fillColor=#f8cecc;strokeColor=#b85450;" vertex="1" parent="1">
          <mxGeometry x="625" y="500" width="170" height="20" as="geometry" />
        </mxCell>
        <mxCell id="HJngVcV8iAFgZDOyvAcd-7" value="&lt;span style=&quot;font-size: 13px;&quot;&gt;&lt;b&gt;Sales&lt;/b&gt;&lt;/span&gt;" style="rounded=0;whiteSpace=wrap;html=1;fillColor=#f8cecc;strokeColor=#b85450;" vertex="1" parent="1">
          <mxGeometry x="45" y="310" width="170" height="20" as="geometry" />
        </mxCell>
      </root>
    </mxGraphModel>
  </diagram>
</mxfile>
